<?xml version="1.0" encoding="UTF-8" standalone="no"?><svg xmlns="http://www.w3.org/2000/svg" xmlns:xlink="http://www.w3.org/1999/xlink" fill="#000000" height="328.4" preserveAspectRatio="xMidYMid meet" version="1" viewBox="48.4 48.4 328.4 328.4" width="328.4" zoomAndPan="magnify"><g fill="#100e0e" id="change1_1"><path d="M 212.65625 286.789062 C 171.878906 286.789062 138.820312 253.730469 138.820312 212.949219 C 138.820312 172.167969 171.878906 139.109375 212.65625 139.109375 C 253.4375 139.109375 286.496094 172.167969 286.496094 212.949219 C 286.496094 253.730469 253.4375 286.789062 212.65625 286.789062 Z M 212.65625 118.714844 C 160.613281 118.714844 118.421875 160.90625 118.421875 212.949219 C 118.421875 264.992188 160.613281 307.1875 212.65625 307.1875 C 264.699219 307.1875 306.894531 264.992188 306.894531 212.949219 C 306.894531 160.90625 264.699219 118.714844 212.65625 118.714844" fill="inherit"/><path d="M 212.65625 251.597656 C 191.3125 251.597656 174.011719 234.292969 174.011719 212.949219 C 174.011719 191.605469 191.3125 174.304688 212.65625 174.304688 C 234.003906 174.304688 251.304688 191.605469 251.304688 212.949219 C 251.304688 234.292969 234.003906 251.597656 212.65625 251.597656 Z M 212.65625 163.632812 C 185.421875 163.632812 163.339844 185.710938 163.339844 212.949219 C 163.339844 240.1875 185.421875 262.269531 212.65625 262.269531 C 239.894531 262.269531 261.976562 240.1875 261.976562 212.949219 C 261.976562 185.710938 239.894531 163.632812 212.65625 163.632812" fill="inherit"/><path d="M 212.65625 224.070312 C 206.515625 224.070312 201.535156 219.09375 201.535156 212.949219 C 201.535156 206.808594 206.515625 201.828125 212.65625 201.828125 C 218.800781 201.828125 223.777344 206.808594 223.777344 212.949219 C 223.777344 219.09375 218.800781 224.070312 212.65625 224.070312 Z M 212.65625 192.464844 C 201.347656 192.464844 192.171875 201.636719 192.171875 212.949219 C 192.171875 224.265625 201.347656 233.4375 212.65625 233.4375 C 223.972656 233.4375 233.144531 224.265625 233.144531 212.949219 C 233.144531 201.636719 223.972656 192.464844 212.65625 192.464844" fill="inherit"/><path d="M 227.425781 128.5625 C 227.425781 136.71875 220.8125 143.328125 212.65625 143.328125 C 204.503906 143.328125 197.890625 136.71875 197.890625 128.5625 C 197.890625 120.402344 204.503906 113.792969 212.65625 113.792969 C 220.8125 113.792969 227.425781 120.402344 227.425781 128.5625" fill="inherit"/><path d="M 227.425781 296.640625 C 227.425781 304.796875 220.8125 311.40625 212.65625 311.40625 C 204.503906 311.40625 197.890625 304.796875 197.890625 296.640625 C 197.890625 288.480469 204.503906 281.867188 212.65625 281.867188 C 220.8125 281.867188 227.425781 288.480469 227.425781 296.640625" fill="inherit"/><path d="M 296.695312 227.363281 C 288.539062 227.363281 281.929688 220.753906 281.929688 212.597656 C 281.929688 204.441406 288.539062 197.828125 296.695312 197.828125 C 304.855469 197.828125 311.464844 204.441406 311.464844 212.597656 C 311.464844 220.753906 304.855469 227.363281 296.695312 227.363281" fill="inherit"/><path d="M 128.621094 227.363281 C 120.464844 227.363281 113.851562 220.753906 113.851562 212.597656 C 113.851562 204.441406 120.464844 197.828125 128.621094 197.828125 C 136.773438 197.828125 143.390625 204.441406 143.390625 212.597656 C 143.390625 220.753906 136.773438 227.363281 128.621094 227.363281" fill="inherit"/><path d="M 282.523438 163.613281 C 276.757812 169.386719 267.40625 169.382812 261.640625 163.617188 C 255.871094 157.851562 255.871094 148.5 261.640625 142.734375 C 267.40625 136.964844 276.757812 136.96875 282.523438 142.734375 C 288.289062 148.496094 288.292969 157.847656 282.523438 163.613281" fill="inherit"/><path d="M 163.679688 282.464844 C 157.910156 288.230469 148.558594 288.230469 142.789062 282.464844 C 137.023438 276.699219 137.023438 267.347656 142.789062 261.582031 C 148.558594 255.8125 157.910156 255.8125 163.679688 261.582031 C 169.441406 267.347656 169.441406 276.699219 163.679688 282.464844" fill="inherit"/><path d="M 261.640625 282.464844 C 255.871094 276.699219 255.871094 267.347656 261.640625 261.582031 C 267.40625 255.8125 276.757812 255.8125 282.523438 261.582031 C 288.292969 267.347656 288.289062 276.699219 282.523438 282.464844 C 276.757812 288.230469 267.40625 288.230469 261.640625 282.464844" fill="inherit"/><path d="M 142.789062 163.613281 C 137.023438 157.847656 137.023438 148.496094 142.789062 142.734375 C 148.558594 136.96875 157.910156 136.964844 163.679688 142.734375 C 169.441406 148.5 169.441406 157.851562 163.679688 163.617188 C 157.910156 169.382812 148.558594 169.386719 142.789062 163.613281" fill="inherit"/><path d="M 225.605469 75.363281 C 225.605469 85.996094 216.195312 93.203125 217.855469 116.71875 C 218.425781 124.765625 204.238281 126.980469 205.6875 116.71875 C 209.007812 93.203125 199.597656 86.921875 199.597656 75.363281 C 199.597656 54.476562 205.417969 48.390625 212.601562 48.390625 C 219.78125 48.390625 225.605469 54.476562 225.605469 75.363281" fill="inherit"/><path d="M 219.632812 182.890625 C 219.632812 191.140625 216.484375 197.828125 212.601562 197.828125 C 208.71875 197.828125 205.566406 191.140625 205.566406 182.890625 C 205.566406 174.632812 208.71875 167.945312 212.601562 167.945312 C 216.484375 167.945312 219.632812 174.632812 219.632812 182.890625" fill="inherit"/><path d="M 209.5625 134.890625 L 215.640625 134.890625 L 215.640625 172.15625 L 209.5625 172.15625 L 209.5625 134.890625" fill="inherit"/><path d="M 199.597656 349.835938 C 199.597656 339.195312 209.007812 331.996094 207.34375 308.480469 C 206.777344 300.433594 220.964844 298.21875 219.519531 308.480469 C 216.195312 331.996094 225.605469 338.273438 225.605469 349.835938 C 225.605469 370.722656 219.78125 376.808594 212.601562 376.808594 C 205.417969 376.808594 199.597656 370.722656 199.597656 349.835938" fill="inherit"/><path d="M 205.566406 242.308594 C 205.566406 234.058594 208.71875 227.363281 212.601562 227.363281 C 216.484375 227.363281 219.632812 234.058594 219.632812 242.308594 C 219.632812 250.5625 216.484375 257.253906 212.601562 257.253906 C 208.71875 257.253906 205.566406 250.5625 205.566406 242.308594" fill="inherit"/><path d="M 215.640625 290.308594 L 209.5625 290.308594 L 209.5625 253.042969 L 215.640625 253.042969 L 215.640625 290.308594" fill="inherit"/><path d="M 349.839844 225.601562 C 339.199219 225.601562 331.996094 216.191406 308.484375 217.855469 C 300.4375 218.421875 298.21875 204.234375 308.484375 205.683594 C 331.996094 209.003906 338.277344 199.597656 349.839844 199.597656 C 370.722656 199.597656 376.808594 205.421875 376.808594 212.597656 C 376.808594 219.78125 370.722656 225.601562 349.839844 225.601562" fill="inherit"/><path d="M 242.3125 219.632812 C 234.058594 219.632812 227.371094 216.484375 227.371094 212.601562 C 227.371094 208.714844 234.058594 205.566406 242.3125 205.566406 C 250.566406 205.566406 257.257812 208.714844 257.257812 212.601562 C 257.257812 216.484375 250.566406 219.632812 242.3125 219.632812" fill="inherit"/><path d="M 290.308594 209.558594 L 290.308594 215.640625 L 253.042969 215.640625 L 253.042969 209.558594 L 290.308594 209.558594" fill="inherit"/><path d="M 75.363281 199.597656 C 86.003906 199.597656 93.207031 209.003906 116.722656 207.34375 C 124.769531 206.773438 126.980469 220.964844 116.722656 219.515625 C 93.207031 216.191406 86.925781 225.601562 75.363281 225.601562 C 54.480469 225.601562 48.390625 219.78125 48.390625 212.601562 C 48.390625 205.421875 54.480469 199.597656 75.363281 199.597656" fill="inherit"/><path d="M 182.890625 205.566406 C 191.144531 205.566406 197.832031 208.714844 197.832031 212.597656 C 197.832031 216.484375 191.144531 219.632812 182.890625 219.632812 C 174.636719 219.632812 167.945312 216.484375 167.945312 212.597656 C 167.945312 208.714844 174.636719 205.566406 182.890625 205.566406" fill="inherit"/><path d="M 134.890625 215.640625 L 134.890625 209.558594 L 172.160156 209.558594 L 172.160156 215.640625 L 134.890625 215.640625" fill="inherit"/><path d="M 318.835938 124.75 C 311.3125 132.273438 299.570312 130.714844 284.113281 148.519531 C 278.824219 154.609375 267.230469 146.144531 275.511719 139.910156 C 294.484375 125.632812 292.273438 114.539062 300.449219 106.363281 C 315.214844 91.59375 323.636719 91.40625 328.714844 96.484375 C 333.789062 101.5625 333.605469 109.984375 318.835938 124.75" fill="inherit"/><path d="M 238.585938 196.5625 C 232.746094 202.394531 225.789062 204.902344 223.042969 202.15625 C 220.296875 199.40625 222.804688 192.449219 228.636719 186.613281 C 234.472656 180.78125 241.429688 178.277344 244.179688 181.019531 C 246.921875 183.769531 244.417969 190.726562 238.585938 196.5625" fill="inherit"/><path d="M 265.398438 155.503906 L 269.695312 159.796875 L 243.347656 186.148438 L 239.050781 181.851562 L 265.398438 155.503906" fill="inherit"/><path d="M 106.367188 300.445312 C 113.890625 292.925781 125.632812 294.480469 141.082031 276.683594 C 146.375 270.585938 157.972656 279.054688 149.691406 285.289062 C 130.722656 299.566406 132.929688 310.65625 124.753906 318.832031 C 109.984375 333.601562 101.566406 333.789062 96.488281 328.714844 C 91.410156 323.636719 91.597656 315.214844 106.367188 300.445312" fill="inherit"/><path d="M 186.617188 228.636719 C 192.453125 222.800781 199.414062 220.292969 202.15625 223.039062 C 204.90625 225.785156 202.398438 232.742188 196.5625 238.582031 C 190.730469 244.417969 183.769531 246.921875 181.023438 244.175781 C 178.277344 241.425781 180.785156 234.46875 186.617188 228.636719" fill="inherit"/><path d="M 159.804688 269.691406 L 155.507812 265.398438 L 181.855469 239.046875 L 186.152344 243.347656 L 159.804688 269.691406" fill="inherit"/><path d="M 124.753906 106.363281 C 132.277344 113.886719 130.722656 125.632812 148.519531 141.085938 C 154.613281 146.375 146.144531 157.972656 139.910156 149.6875 C 125.632812 130.71875 114.539062 132.925781 106.367188 124.75 C 91.597656 109.984375 91.410156 101.5625 96.488281 96.488281 C 101.566406 91.410156 109.984375 91.597656 124.753906 106.363281" fill="inherit"/><path d="M 196.5625 186.617188 C 202.398438 192.449219 204.90625 199.40625 202.160156 202.15625 C 199.414062 204.902344 192.453125 202.394531 186.617188 196.5625 C 180.785156 190.726562 178.277344 183.769531 181.023438 181.019531 C 183.769531 178.277344 190.730469 180.78125 196.5625 186.617188" fill="inherit"/><path d="M 155.507812 159.796875 L 159.804688 155.503906 L 186.152344 181.851562 L 181.855469 186.148438 L 155.507812 159.796875" fill="inherit"/><path d="M 300.449219 318.832031 C 292.929688 311.3125 294.484375 299.566406 276.683594 284.117188 C 270.589844 278.820312 279.058594 267.226562 285.289062 275.507812 C 299.570312 294.480469 310.660156 292.269531 318.835938 300.445312 C 333.605469 315.214844 333.789062 323.636719 328.714844 328.710938 C 323.636719 333.789062 315.214844 333.601562 300.449219 318.832031" fill="inherit"/><path d="M 228.636719 238.582031 C 222.804688 232.742188 220.296875 225.785156 223.042969 223.042969 C 225.789062 220.292969 232.746094 222.800781 238.585938 228.636719 C 244.417969 234.46875 246.921875 241.425781 244.179688 244.175781 C 241.429688 246.921875 234.472656 244.417969 228.636719 238.582031" fill="inherit"/><path d="M 269.695312 265.398438 L 265.398438 269.695312 L 239.050781 243.347656 L 243.347656 239.050781 L 269.695312 265.398438" fill="inherit"/></g></svg>